<svg xmlns="http://www.w3.org/2000/svg" width="140" height="20" fill="none"><path fill="#69B9FF" d="M14.905 1.153 8.496 19H6.41L0 1.153h2.173L6.348 12.91c.17.472.321.923.451 1.355a25.457 25.457 0 0 1 .647 2.405 26.384 26.384 0 0 1 .647-2.418c.139-.439.293-.899.464-1.379l4.15-11.719h2.198ZM31.295 19h-9.937V1.153h9.937v1.831h-7.861v5.774h7.41v1.807h-7.41v6.604h7.86V19Zm7.955 0V1.153h2.075v15.992h7.923V19H39.25Zm32.54-8.948c0 1.376-.175 2.629-.525 3.76-.35 1.123-.87 2.091-1.562 2.905a6.858 6.858 0 0 1-2.552 1.868c-1.017.44-2.197.66-3.54.66-1.383 0-2.592-.22-3.625-.66a6.777 6.777 0 0 1-2.564-1.88c-.675-.814-1.184-1.786-1.525-2.917-.334-1.132-.501-2.385-.501-3.76 0-1.823.301-3.422.903-4.798.602-1.375 1.514-2.445 2.735-3.21C60.263 1.255 61.8.873 63.648.873c1.766 0 3.251.378 4.455 1.135 1.213.757 2.129 1.823 2.747 3.198.627 1.367.94 2.983.94 4.846Zm-14.209 0c0 1.514.216 2.824.647 3.93.431 1.108 1.09 1.962 1.978 2.564.895.603 2.03.904 3.405.904 1.384 0 2.515-.301 3.394-.904.887-.602 1.542-1.456 1.965-2.563.423-1.107.635-2.417.635-3.93 0-2.304-.484-4.102-1.453-5.396-.96-1.302-2.461-1.953-4.504-1.953-1.384 0-2.523.297-3.418.89-.895.595-1.563 1.441-2.002 2.54-.431 1.09-.647 2.396-.647 3.918ZM87.4 2.728c-.985 0-1.872.17-2.661.513a5.412 5.412 0 0 0-2.002 1.465c-.545.634-.965 1.403-1.258 2.307-.292.903-.439 1.92-.439 3.052 0 1.497.232 2.799.696 3.906.472 1.098 1.172 1.949 2.1 2.551.935.602 2.103.903 3.503.903.797 0 1.546-.065 2.246-.195.708-.138 1.396-.31 2.063-.513v1.807c-.651.244-1.335.423-2.05.537-.717.122-1.567.183-2.552.183-1.815 0-3.333-.374-4.553-1.123-1.213-.757-2.124-1.823-2.735-3.198-.602-1.376-.903-2.999-.903-4.87 0-1.352.187-2.585.561-3.7.383-1.123.936-2.091 1.66-2.905a7.352 7.352 0 0 1 2.686-1.88c1.066-.447 2.287-.671 3.662-.671.904 0 1.774.09 2.613.269a9.669 9.669 0 0 1 2.27.769l-.83 1.757a12.39 12.39 0 0 0-1.88-.671 7.882 7.882 0 0 0-2.197-.293ZM99.517 19V1.153h2.075V19h-2.075Zm16.463 0h-2.087V2.984h-5.616v-1.83h13.294v1.83h-5.591V19Zm16.842-8.899 4.748-8.948h2.234l-5.945 10.926V19h-2.075v-6.824l-5.957-11.023h2.271l4.724 8.948Z"/></svg>